<svg id="Layer_1" data-name="Layer 1" xmlns="http://www.w3.org/2000/svg" viewBox="0 0 120.02 119.33"><defs><style>.cls-1,.cls-4{fill:#fff;}.cls-2{fill:none;stroke:#0f81e0;}.cls-2,.cls-3{stroke-linecap:round;stroke-linejoin:round;}.cls-2,.cls-3,.cls-4,.cls-5{stroke-width:4px;}.cls-3{fill:#d0e8f9;}.cls-3,.cls-4{stroke:#0096e6;}.cls-5{fill:#0096e6;stroke:#fff;}</style></defs><title>icon-soap</title><g id="Page-1"><g id="g209"><path id="Fill-247" class="cls-1" d="M99.8,34C99.57,16.6,85.41,2,68,2A33.44,33.44,0,0,0,40.64,16.67,16,16,0,0,0,15.79,30c0,0.31,0,.61,0,0.91s0,0.73,0,1.09a25.61,25.61,0,0,0-14,22.31A23.76,23.76,0,0,0,25.48,78h49c0.28,0,.54,0,0.82,0s0.54,0,.82,0H95.73a22.12,22.12,0,0,0,22.06-22.06A22.44,22.44,0,0,0,99.8,34h0Z" transform="translate(0.23)"/><path id="Stroke-248" class="cls-2" d="M99.8,34C99.57,16.6,85.41,2,68,2A33.44,33.44,0,0,0,40.64,16.67,16,16,0,0,0,15.79,30c0,0.31,0,.61,0,0.91s0,0.73,0,1.09a25.61,25.61,0,0,0-14,22.31A23.76,23.76,0,0,0,25.48,78h49c0.28,0,.54,0,0.82,0s0.54,0,.82,0H95.73a22.12,22.12,0,0,0,22.06-22.06A22.44,22.44,0,0,0,99.8,34h0Z" transform="translate(0.23)"/><path id="Stroke-618" class="cls-2" d="M99.8,34a38.59,38.59,0,0,0-10,0m-74-4a16,16,0,1,1,32,0" transform="translate(0.23)"/></g></g><path id="Stroke-274" class="cls-3" d="M76.29,51.91l-2-.38a4.08,4.08,0,0,1-2.52-6.43L73,43.4l-2.69-2.69-1.68,1.1a4.08,4.08,0,0,1-6.33-2.75L62,37H58.2l-0.47,2.56a4.12,4.12,0,0,1-6.3,2.61l-2.18-1.46-2.7,2.69,1.24,1.7a4.08,4.08,0,0,1-2.52,6.43l-2,.38v3.81L45.35,56a4.08,4.08,0,0,1,2.75,6.33L47,64l2.69,2.69,1.7-1.24A4.08,4.08,0,0,1,57.82,68l0.38,2H62l0.23-1.46a4.08,4.08,0,0,1,6.46-2.66l1.2,0.87,2.69-2.69-1.11-1.68A4.08,4.08,0,0,1,74.23,56l2.06-.32v-3.8h0Z" transform="translate(0.23)"/><path id="Stroke-1732" class="cls-4" d="M65.29,53.5a5.5,5.5,0,1,1-5.5-5.5,5.5,5.5,0,0,1,5.5,5.5h0Z" transform="translate(0.23)"/><rect class="cls-5" x="2" y="84.01" width="116" height="33.33" rx="12" ry="12"/><path class="cls-1" d="M37,95.16a1.54,1.54,0,0,1-.38.45,0.85,0.85,0,0,1-.51.14,1.25,1.25,0,0,1-.64-0.21l-0.8-.45a7.8,7.8,0,0,0-1.05-.45,4.18,4.18,0,0,0-1.39-.21,3.07,3.07,0,0,0-2.11.63,2.1,2.1,0,0,0-.7,1.64,1.54,1.54,0,0,0,.38,1.07,3.33,3.33,0,0,0,1,.74,9.41,9.41,0,0,0,1.42.55q0.8,0.24,1.63.53a14.42,14.42,0,0,1,1.63.68,5.73,5.73,0,0,1,1.42,1,4.52,4.52,0,0,1,1,1.45,5.07,5.07,0,0,1,.38,2.09,6.69,6.69,0,0,1-.47,2.5,5.94,5.94,0,0,1-1.34,2,6.22,6.22,0,0,1-2.17,1.37,8,8,0,0,1-2.92.5,9.24,9.24,0,0,1-1.86-.19,10.73,10.73,0,0,1-1.78-.53,9.83,9.83,0,0,1-1.61-.81,7.08,7.08,0,0,1-1.32-1.05l1.19-1.92a1.2,1.2,0,0,1,.39-0.36,1,1,0,0,1,.51-0.14,1.4,1.4,0,0,1,.77.27l0.93,0.59a7.52,7.52,0,0,0,1.22.59,4.59,4.59,0,0,0,1.67.27,3.33,3.33,0,0,0,2.19-.65,2.37,2.37,0,0,0,.78-1.93,1.81,1.81,0,0,0-.38-1.2,3.1,3.1,0,0,0-1-.77,8,8,0,0,0-1.42-.53q-0.8-.22-1.63-0.49a13.37,13.37,0,0,1-1.63-.65,5.06,5.06,0,0,1-1.42-1,4.73,4.73,0,0,1-1-1.54,5.91,5.91,0,0,1-.38-2.28A5.42,5.42,0,0,1,27.34,93a6.35,6.35,0,0,1,2.06-1.28,7.53,7.53,0,0,1,2.8-.49,9.53,9.53,0,0,1,3.27.55A7.35,7.35,0,0,1,38,93.26Z" transform="translate(0.23)"/><path class="cls-1" d="M60.22,101.2a10.78,10.78,0,0,1-.72,4,9.21,9.21,0,0,1-5.2,5.27,11.42,11.42,0,0,1-8.21,0,9.48,9.48,0,0,1-3.17-2.1,9.27,9.27,0,0,1-2-3.17,11.32,11.32,0,0,1,0-8,9.28,9.28,0,0,1,2-3.17A9.49,9.49,0,0,1,46.08,92a11.42,11.42,0,0,1,8.21,0,9.25,9.25,0,0,1,5.2,5.28A10.7,10.7,0,0,1,60.22,101.2Zm-4.14,0a8.75,8.75,0,0,0-.4-2.76,5.86,5.86,0,0,0-1.17-2.08A5,5,0,0,0,52.65,95a7,7,0,0,0-4.93,0,5,5,0,0,0-1.86,1.31,5.86,5.86,0,0,0-1.17,2.08,9.65,9.65,0,0,0,0,5.54A5.79,5.79,0,0,0,45.86,106a5.06,5.06,0,0,0,1.86,1.3,7,7,0,0,0,4.93,0A5.07,5.07,0,0,0,54.5,106,5.79,5.79,0,0,0,55.67,104,8.8,8.8,0,0,0,56.07,101.2Z" transform="translate(0.23)"/><path class="cls-1" d="M79.71,111H76.56a1.38,1.38,0,0,1-.86-0.25,1.5,1.5,0,0,1-.49-0.64l-1.32-3.74h-7.8l-1.32,3.74a1.55,1.55,0,0,1-.47.61,1.3,1.3,0,0,1-.85.28H60.27l7.65-19.59h4.14Zm-6.8-7.44-2.12-6q-0.19-.47-0.4-1.11T70,95.08q-0.19.76-.4,1.4t-0.4,1.11l-2.11,6h5.82Z" transform="translate(0.23)"/><path class="cls-1" d="M88.13,91.41a11.39,11.39,0,0,1,3.48.47A6.62,6.62,0,0,1,94,93.2a5.17,5.17,0,0,1,1.4,2,6.91,6.91,0,0,1,.45,2.52,7.17,7.17,0,0,1-.47,2.65A5.42,5.42,0,0,1,94,102.44a6.67,6.67,0,0,1-2.42,1.34,11,11,0,0,1-3.42.48H85.57V111h-4V91.41h6.62Zm0,9.75a3.72,3.72,0,0,0,2.79-.92,3.46,3.46,0,0,0,.88-2.51,3.8,3.8,0,0,0-.22-1.33,2.66,2.66,0,0,0-.67-1,3,3,0,0,0-1.14-.66,5.2,5.2,0,0,0-1.63-.23H85.57v6.67h2.57Z" transform="translate(0.23)"/></svg>